<svg xmlns="http://www.w3.org/2000/svg" xmlns:xlink="http://www.w3.org/1999/xlink" width="2000" zoomAndPan="magnify" viewBox="0 0 1500 1124.99995" height="1500" preserveAspectRatio="xMidYMid meet" version="1.0"><defs><g/><clipPath id="3ca8ae819c"><path d="M 1164.910156 7.242188 L 1461.894531 7.242188 L 1461.894531 57.742188 L 1164.910156 57.742188 Z M 1164.910156 7.242188 " clip-rule="nonzero"/></clipPath><clipPath id="fc2932eadb"><path d="M 0.910156 0.242188 L 297.894531 0.242188 L 297.894531 50.742188 L 0.910156 50.742188 Z M 0.910156 0.242188 " clip-rule="nonzero"/></clipPath><clipPath id="cf6db9c757"><rect x="0" width="298" y="0" height="51"/></clipPath><clipPath id="7a4858282a"><path d="M 30.492188 776.027344 L 459.289062 776.027344 L 459.289062 837.394531 L 30.492188 837.394531 Z M 30.492188 776.027344 " clip-rule="nonzero"/></clipPath><clipPath id="1c77bde979"><path d="M 0.492188 0.0273438 L 429.289062 0.0273438 L 429.289062 61.394531 L 0.492188 61.394531 Z M 0.492188 0.0273438 " clip-rule="nonzero"/></clipPath><clipPath id="466070b5cb"><rect x="0" width="430" y="0" height="62"/></clipPath><clipPath id="a4d1248eee"><path d="M 525.082031 776.027344 L 1469.507812 776.027344 L 1469.507812 837.394531 L 525.082031 837.394531 Z M 525.082031 776.027344 " clip-rule="nonzero"/></clipPath><clipPath id="be61f2168b"><path d="M 0.0820312 0.0273438 L 944.507812 0.0273438 L 944.507812 61.394531 L 0.0820312 61.394531 Z M 0.0820312 0.0273438 " clip-rule="nonzero"/></clipPath><clipPath id="61031d21ba"><rect x="0" width="945" y="0" height="62"/></clipPath><clipPath id="aeece37e57"><path d="M 486.710938 776.027344 L 563.65625 776.027344 L 563.65625 837.394531 L 486.710938 837.394531 Z M 486.710938 776.027344 " clip-rule="nonzero"/></clipPath><clipPath id="d7cabc6e30"><path d="M 525.082031 776.027344 L 563.453125 776.027344 L 525.082031 837.394531 L 486.710938 837.394531 Z M 525.082031 776.027344 " clip-rule="nonzero"/></clipPath><clipPath id="46c811042b"><path d="M 0.710938 0.0273438 L 77.519531 0.0273438 L 77.519531 61.394531 L 0.710938 61.394531 Z M 0.710938 0.0273438 " clip-rule="nonzero"/></clipPath><clipPath id="8cc5cfa709"><path d="M 39.082031 0.0273438 L 77.453125 0.0273438 L 39.082031 61.394531 L 0.710938 61.394531 Z M 39.082031 0.0273438 " clip-rule="nonzero"/></clipPath><clipPath id="c7e944e281"><rect x="0" width="78" y="0" height="62"/></clipPath><clipPath id="daddaad7a3"><path d="M 420.917969 776.027344 L 497.863281 776.027344 L 497.863281 837.394531 L 420.917969 837.394531 Z M 420.917969 776.027344 " clip-rule="nonzero"/></clipPath><clipPath id="c30c2a3eef"><path d="M 459.289062 776.027344 L 497.660156 776.027344 L 459.289062 837.394531 L 420.917969 837.394531 Z M 459.289062 776.027344 " clip-rule="nonzero"/></clipPath><clipPath id="771d655e20"><path d="M 0.917969 0.0273438 L 77.761719 0.0273438 L 77.761719 61.394531 L 0.917969 61.394531 Z M 0.917969 0.0273438 " clip-rule="nonzero"/></clipPath><clipPath id="8725566c4e"><path d="M 39.289062 0.0273438 L 77.660156 0.0273438 L 39.289062 61.394531 L 0.917969 61.394531 Z M 39.289062 0.0273438 " clip-rule="nonzero"/></clipPath><clipPath id="87e7919774"><rect x="0" width="78" y="0" height="62"/></clipPath><clipPath id="e935b93dfa"><rect x="0" width="1500" y="0" height="838"/></clipPath></defs><g transform="matrix(1, 0, 0, 1, 0, 123)"><g clip-path="url(#e935b93dfa)"><g clip-path="url(#3ca8ae819c)"><g transform="matrix(1, 0, 0, 1, 1164, 7)"><g clip-path="url(#cf6db9c757)"><g clip-path="url(#fc2932eadb)"><path fill="#c5a059" d="M 0.910156 0.242188 L 297.816406 0.242188 L 297.816406 50.742188 L 0.910156 50.742188 Z M 0.910156 0.242188 " fill-opacity="1" fill-rule="nonzero"/></g></g></g></g><g clip-path="url(#7a4858282a)"><g transform="matrix(1, 0, 0, 1, 30, 776)"><g clip-path="url(#466070b5cb)"><g clip-path="url(#1c77bde979)"><path fill="#346f9b" d="M 0.492188 0.0273438 L 429.324219 0.0273438 L 429.324219 61.394531 L 0.492188 61.394531 Z M 0.492188 0.0273438 " fill-opacity="1" fill-rule="nonzero"/></g></g></g></g><g clip-path="url(#a4d1248eee)"><g transform="matrix(1, 0, 0, 1, 525, 776)"><g clip-path="url(#61031d21ba)"><g clip-path="url(#be61f2168b)"><path fill="#c5a059" d="M 0.0820312 0.0273438 L 944.519531 0.0273438 L 944.519531 61.394531 L 0.0820312 61.394531 Z M 0.0820312 0.0273438 " fill-opacity="1" fill-rule="nonzero"/></g></g></g></g><g fill="#346f9b" fill-opacity="1"><g transform="translate(0.0000333333, 446.469618)"><g><path d="M 332.09375 0 L 331.640625 -193.71875 L 236.625 -34.125 L 202.953125 -34.125 L 108.390625 -189.578125 L 108.390625 0 L 38.28125 0 L 38.28125 -322.875 L 100.09375 -322.875 L 220.9375 -122.234375 L 339.9375 -322.875 L 401.28125 -322.875 L 402.203125 0 Z M 332.09375 0 "/></g></g></g><g fill="#346f9b" fill-opacity="1"><g transform="translate(440.494736, 446.469618)"><g><path d="M 250.921875 -69.1875 L 101.015625 -69.1875 L 72.421875 0 L -4.15625 0 L 139.765625 -322.875 L 213.5625 -322.875 L 357.9375 0 L 279.515625 0 Z M 227.390625 -125.921875 L 176.203125 -249.53125 L 125 -125.921875 Z M 227.390625 -125.921875 "/></g></g></g><g fill="#346f9b" fill-opacity="1"><g transform="translate(789.200399, 446.469618)"><g><path d="M 192.796875 5.53125 C 159.898438 5.53125 130.148438 -1.613281 103.546875 -15.90625 C 76.953125 -30.207031 56.039062 -50.039062 40.8125 -75.40625 C 25.59375 -100.78125 17.984375 -129.457031 17.984375 -161.4375 C 17.984375 -193.414062 25.59375 -222.085938 40.8125 -247.453125 C 56.039062 -272.828125 76.953125 -292.660156 103.546875 -306.953125 C 130.148438 -321.253906 160.054688 -328.40625 193.265625 -328.40625 C 221.242188 -328.40625 246.535156 -323.484375 269.140625 -313.640625 C 291.742188 -303.804688 310.734375 -289.664062 326.109375 -271.21875 L 278.140625 -226.9375 C 256.304688 -252.144531 229.242188 -264.75 196.953125 -264.75 C 176.960938 -264.75 159.125 -260.367188 143.4375 -251.609375 C 127.757812 -242.847656 115.539062 -230.625 106.78125 -214.9375 C 98.019531 -199.257812 93.640625 -181.425781 93.640625 -161.4375 C 93.640625 -141.445312 98.019531 -123.609375 106.78125 -107.921875 C 115.539062 -92.242188 127.757812 -80.023438 143.4375 -71.265625 C 159.125 -62.503906 176.960938 -58.125 196.953125 -58.125 C 229.242188 -58.125 256.304688 -70.882812 278.140625 -96.40625 L 326.109375 -52.125 C 310.734375 -33.363281 291.664062 -19.0625 268.90625 -9.21875 C 246.15625 0.613281 220.785156 5.53125 192.796875 5.53125 Z M 192.796875 5.53125 "/></g></g></g><g fill="#346f9b" fill-opacity="1"><g transform="translate(1127.297317, 446.469618)"><g><path d="M 334.40625 -322.875 L 334.40625 0 L 259.6875 0 L 259.6875 -132.375 L 113 -132.375 L 113 0 L 38.28125 0 L 38.28125 -322.875 L 113 -322.875 L 113 -195.5625 L 259.6875 -195.5625 L 259.6875 -322.875 Z M 334.40625 -322.875 "/></g></g></g><g fill="#333333" fill-opacity="1"><g transform="translate(20.264383, 694.440915)"><g><path d="M 77.859375 1.515625 C 64.671875 1.515625 52.03125 -0.59375 39.9375 -4.8125 C 27.851562 -9.039062 18.515625 -14.625 11.921875 -21.5625 L 19.265625 -36.015625 C 25.691406 -29.585938 34.226562 -24.382812 44.875 -20.40625 C 55.53125 -16.4375 66.523438 -14.453125 77.859375 -14.453125 C 93.742188 -14.453125 105.660156 -17.367188 113.609375 -23.203125 C 121.554688 -29.035156 125.53125 -36.601562 125.53125 -45.90625 C 125.53125 -53 123.375 -58.660156 119.0625 -62.890625 C 114.75 -67.117188 109.460938 -70.375 103.203125 -72.65625 C 96.953125 -74.9375 88.25 -77.429688 77.09375 -80.140625 C 63.738281 -83.515625 53.085938 -86.765625 45.140625 -89.890625 C 37.191406 -93.023438 30.382812 -97.800781 24.71875 -104.21875 C 19.0625 -110.644531 16.234375 -119.351562 16.234375 -130.34375 C 16.234375 -139.300781 18.597656 -147.457031 23.328125 -154.8125 C 28.066406 -162.164062 35.335938 -168.039062 45.140625 -172.4375 C 54.941406 -176.832031 67.113281 -179.03125 81.65625 -179.03125 C 91.800781 -179.03125 101.734375 -177.632812 111.453125 -174.84375 C 121.171875 -172.0625 129.582031 -168.21875 136.6875 -163.3125 L 130.34375 -148.359375 C 122.90625 -153.253906 114.957031 -156.925781 106.5 -159.375 C 98.050781 -161.832031 89.769531 -163.0625 81.65625 -163.0625 C 66.101562 -163.0625 54.394531 -160.0625 46.53125 -154.0625 C 38.675781 -148.0625 34.75 -140.328125 34.75 -130.859375 C 34.75 -123.753906 36.898438 -118.046875 41.203125 -113.734375 C 45.515625 -109.421875 50.925781 -106.125 57.4375 -103.84375 C 63.945312 -101.5625 72.695312 -99.066406 83.6875 -96.359375 C 96.707031 -93.148438 107.226562 -89.984375 115.25 -86.859375 C 123.28125 -83.734375 130.085938 -79 135.671875 -72.65625 C 141.253906 -66.3125 144.046875 -57.734375 144.046875 -46.921875 C 144.046875 -37.953125 141.632812 -29.789062 136.8125 -22.4375 C 132 -15.082031 124.601562 -9.25 114.625 -4.9375 C 104.644531 -0.632812 92.390625 1.515625 77.859375 1.515625 Z M 77.859375 1.515625 "/></g></g></g><g fill="#333333" fill-opacity="1"><g transform="translate(173.691026, 694.440915)"><g><path d="M 63.390625 -161.28125 L 1.015625 -161.28125 L 1.015625 -177.515625 L 144.546875 -177.515625 L 144.546875 -161.28125 L 82.171875 -161.28125 L 82.171875 0 L 63.390625 0 Z M 63.390625 -161.28125 "/></g></g></g><g fill="#333333" fill-opacity="1"><g transform="translate(310.380147, 694.440915)"><g><path d="M 140.234375 -47.421875 L 41.328125 -47.421875 L 20.03125 0 L 0.5 0 L 81.65625 -177.515625 L 100.171875 -177.515625 L 181.3125 0 L 161.546875 0 Z M 133.390625 -62.640625 L 90.78125 -157.984375 L 48.1875 -62.640625 Z M 133.390625 -62.640625 "/></g></g></g><g fill="#333333" fill-opacity="1"><g transform="translate(492.209689, 694.440915)"><g><path d="M 177.265625 -177.515625 L 177.265625 0 L 161.796875 0 L 47.671875 -144.046875 L 47.671875 0 L 28.90625 0 L 28.90625 -177.515625 L 44.375 -177.515625 L 158.75 -33.46875 L 158.75 -177.515625 Z M 177.265625 -177.515625 "/></g></g></g><g fill="#333333" fill-opacity="1"><g transform="translate(698.384653, 694.440915)"><g><path d="M 28.90625 -177.515625 L 101.1875 -177.515625 C 119.945312 -177.515625 136.507812 -173.753906 150.875 -166.234375 C 165.25 -158.710938 176.410156 -148.226562 184.359375 -134.78125 C 192.304688 -121.34375 196.28125 -106 196.28125 -88.75 C 196.28125 -71.507812 192.304688 -56.164062 184.359375 -42.71875 C 176.410156 -29.28125 165.25 -18.800781 150.875 -11.28125 C 136.507812 -3.757812 119.945312 0 101.1875 0 L 28.90625 0 Z M 100.171875 -16.234375 C 115.722656 -16.234375 129.332031 -19.316406 141 -25.484375 C 152.664062 -31.660156 161.707031 -40.195312 168.125 -51.09375 C 174.550781 -62 177.765625 -74.550781 177.765625 -88.75 C 177.765625 -102.957031 174.550781 -115.507812 168.125 -126.40625 C 161.707031 -137.3125 152.664062 -145.847656 141 -152.015625 C 129.332031 -158.191406 115.722656 -161.28125 100.171875 -161.28125 L 47.671875 -161.28125 L 47.671875 -16.234375 Z M 100.171875 -16.234375 "/></g></g></g><g fill="#333333" fill-opacity="1"><g transform="translate(905.320364, 694.440915)"><g><path d="M 140.234375 -47.421875 L 41.328125 -47.421875 L 20.03125 0 L 0.5 0 L 81.65625 -177.515625 L 100.171875 -177.515625 L 181.3125 0 L 161.546875 0 Z M 133.390625 -62.640625 L 90.78125 -157.984375 L 48.1875 -62.640625 Z M 133.390625 -62.640625 "/></g></g></g><g fill="#333333" fill-opacity="1"><g transform="translate(1087.149852, 694.440915)"><g><path d="M 150.125 0 L 109.546875 -57.0625 C 104.984375 -56.550781 100.25 -56.296875 95.34375 -56.296875 L 47.671875 -56.296875 L 47.671875 0 L 28.90625 0 L 28.90625 -177.515625 L 95.34375 -177.515625 C 118 -177.515625 135.75 -172.101562 148.59375 -161.28125 C 161.445312 -150.46875 167.875 -135.59375 167.875 -116.65625 C 167.875 -102.789062 164.363281 -91.082031 157.34375 -81.53125 C 150.332031 -71.976562 140.316406 -65.085938 127.296875 -60.859375 L 170.671875 0 Z M 94.84375 -72.28125 C 112.425781 -72.28125 125.863281 -76.164062 135.15625 -83.9375 C 144.457031 -91.71875 149.109375 -102.625 149.109375 -116.65625 C 149.109375 -131.019531 144.457031 -142.046875 135.15625 -149.734375 C 125.863281 -157.429688 112.425781 -161.28125 94.84375 -161.28125 L 47.671875 -161.28125 L 47.671875 -72.28125 Z M 94.84375 -72.28125 "/></g></g></g><g fill="#333333" fill-opacity="1"><g transform="translate(1270.501065, 694.440915)"><g><path d="M 28.90625 -177.515625 L 101.1875 -177.515625 C 119.945312 -177.515625 136.507812 -173.753906 150.875 -166.234375 C 165.25 -158.710938 176.410156 -148.226562 184.359375 -134.78125 C 192.304688 -121.34375 196.28125 -106 196.28125 -88.75 C 196.28125 -71.507812 192.304688 -56.164062 184.359375 -42.71875 C 176.410156 -29.28125 165.25 -18.800781 150.875 -11.28125 C 136.507812 -3.757812 119.945312 0 101.1875 0 L 28.90625 0 Z M 100.171875 -16.234375 C 115.722656 -16.234375 129.332031 -19.316406 141 -25.484375 C 152.664062 -31.660156 161.707031 -40.195312 168.125 -51.09375 C 174.550781 -62 177.765625 -74.550781 177.765625 -88.75 C 177.765625 -102.957031 174.550781 -115.507812 168.125 -126.40625 C 161.707031 -137.3125 152.664062 -145.847656 141 -152.015625 C 129.332031 -158.191406 115.722656 -161.28125 100.171875 -161.28125 L 47.671875 -161.28125 L 47.671875 -16.234375 Z M 100.171875 -16.234375 "/></g></g></g><g clip-path="url(#aeece37e57)"><g clip-path="url(#d7cabc6e30)"><g transform="matrix(1, 0, 0, 1, 486, 776)"><g clip-path="url(#c7e944e281)"><g clip-path="url(#46c811042b)"><g clip-path="url(#8cc5cfa709)"><path fill="#c5a059" d="M 0.710938 0.0273438 L 77.417969 0.0273438 L 77.417969 61.394531 L 0.710938 61.394531 Z M 0.710938 0.0273438 " fill-opacity="1" fill-rule="nonzero"/></g></g></g></g></g></g><g clip-path="url(#daddaad7a3)"><g clip-path="url(#c30c2a3eef)"><g transform="matrix(1, 0, 0, 1, 420, 776)"><g clip-path="url(#87e7919774)"><g clip-path="url(#771d655e20)"><g clip-path="url(#8725566c4e)"><path fill="#346f9b" d="M 0.917969 0.0273438 L 77.621094 0.0273438 L 77.621094 61.394531 L 0.917969 61.394531 Z M 0.917969 0.0273438 " fill-opacity="1" fill-rule="nonzero"/></g></g></g></g></g></g></g></g></svg>