<svg xmlns="http://www.w3.org/2000/svg" xmlns:xlink="http://www.w3.org/1999/xlink" width="2000" zoomAndPan="magnify" viewBox="0 0 1500 1499.999933" height="2000" preserveAspectRatio="xMidYMid meet" version="1.0"><defs><g/><clipPath id="13a0caea74"><path d="M 1091.089844 385.398438 L 1335.230469 385.398438 L 1335.230469 426.914062 L 1091.089844 426.914062 Z M 1091.089844 385.398438 " clip-rule="nonzero"/></clipPath><clipPath id="cad0d87b0d"><path d="M 0.0898438 0.398438 L 244.230469 0.398438 L 244.230469 41.914062 L 0.0898438 41.914062 Z M 0.0898438 0.398438 " clip-rule="nonzero"/></clipPath><clipPath id="c61e5c5968"><rect x="0" width="245" y="0" height="42"/></clipPath><clipPath id="4361b462c5"><path d="M 158.507812 1017.402344 L 511.011719 1017.402344 L 511.011719 1067.847656 L 158.507812 1067.847656 Z M 158.507812 1017.402344 " clip-rule="nonzero"/></clipPath><clipPath id="1add7dd7d4"><path d="M 0.507812 0.402344 L 353.011719 0.402344 L 353.011719 50.847656 L 0.507812 50.847656 Z M 0.507812 0.402344 " clip-rule="nonzero"/></clipPath><clipPath id="2f785dc57d"><rect x="0" width="354" y="0" height="51"/></clipPath><clipPath id="a2f8e55843"><path d="M 565.101562 1017.402344 L 1341.492188 1017.402344 L 1341.492188 1067.847656 L 565.101562 1067.847656 Z M 565.101562 1017.402344 " clip-rule="nonzero"/></clipPath><clipPath id="32aa7b6ac8"><path d="M 0.101562 0.402344 L 776.492188 0.402344 L 776.492188 50.847656 L 0.101562 50.847656 Z M 0.101562 0.402344 " clip-rule="nonzero"/></clipPath><clipPath id="28737203ba"><rect x="0" width="777" y="0" height="51"/></clipPath><clipPath id="1ac1b1c4f0"><path d="M 533.554688 1017.402344 L 596.8125 1017.402344 L 596.8125 1067.847656 L 533.554688 1067.847656 Z M 533.554688 1017.402344 " clip-rule="nonzero"/></clipPath><clipPath id="b00a1afc58"><path d="M 565.101562 1017.402344 L 596.644531 1017.402344 L 565.101562 1067.847656 L 533.554688 1067.847656 Z M 565.101562 1017.402344 " clip-rule="nonzero"/></clipPath><clipPath id="16395029f2"><path d="M 0.554688 0.402344 L 63.8125 0.402344 L 63.8125 50.847656 L 0.554688 50.847656 Z M 0.554688 0.402344 " clip-rule="nonzero"/></clipPath><clipPath id="76dd660aed"><path d="M 32.101562 0.402344 L 63.644531 0.402344 L 32.101562 50.847656 L 0.554688 50.847656 Z M 32.101562 0.402344 " clip-rule="nonzero"/></clipPath><clipPath id="d47578f100"><rect x="0" width="64" y="0" height="51"/></clipPath><clipPath id="ff02e357a5"><path d="M 479.46875 1017.402344 L 542.722656 1017.402344 L 542.722656 1067.847656 L 479.46875 1067.847656 Z M 479.46875 1017.402344 " clip-rule="nonzero"/></clipPath><clipPath id="183e8e4703"><path d="M 511.011719 1017.402344 L 542.554688 1017.402344 L 511.011719 1067.847656 L 479.46875 1067.847656 Z M 511.011719 1017.402344 " clip-rule="nonzero"/></clipPath><clipPath id="e840117555"><path d="M 0.46875 0.402344 L 63.640625 0.402344 L 63.640625 50.847656 L 0.46875 50.847656 Z M 0.46875 0.402344 " clip-rule="nonzero"/></clipPath><clipPath id="06c86e594d"><path d="M 32.011719 0.402344 L 63.554688 0.402344 L 32.011719 50.847656 L 0.46875 50.847656 Z M 32.011719 0.402344 " clip-rule="nonzero"/></clipPath><clipPath id="546f6f20c8"><rect x="0" width="64" y="0" height="51"/></clipPath></defs><rect x="-150" width="1800" fill="#ffffff" y="-149.999993" height="1799.99992" fill-opacity="1"/><rect x="-150" width="1800" fill="#ffffff" y="-149.999993" height="1799.99992" fill-opacity="1"/><g clip-path="url(#13a0caea74)"><g transform="matrix(1, 0, 0, 1, 1091, 385)"><g clip-path="url(#c61e5c5968)"><g clip-path="url(#cad0d87b0d)"><path fill="#c5a059" d="M 0.0898438 0.398438 L 244.167969 0.398438 L 244.167969 41.914062 L 0.0898438 41.914062 Z M 0.0898438 0.398438 " fill-opacity="1" fill-rule="nonzero"/></g></g></g></g><g clip-path="url(#4361b462c5)"><g transform="matrix(1, 0, 0, 1, 158, 1017)"><g clip-path="url(#2f785dc57d)"><g clip-path="url(#1add7dd7d4)"><path fill="#346f9b" d="M 0.507812 0.402344 L 353.042969 0.402344 L 353.042969 50.847656 L 0.507812 50.847656 Z M 0.507812 0.402344 " fill-opacity="1" fill-rule="nonzero"/></g></g></g></g><g clip-path="url(#a2f8e55843)"><g transform="matrix(1, 0, 0, 1, 565, 1017)"><g clip-path="url(#28737203ba)"><g clip-path="url(#32aa7b6ac8)"><path fill="#c5a059" d="M 0.101562 0.402344 L 776.5 0.402344 L 776.5 50.847656 L 0.101562 50.847656 Z M 0.101562 0.402344 " fill-opacity="1" fill-rule="nonzero"/></g></g></g></g><g fill="#346f9b" fill-opacity="1"><g transform="translate(133.441428, 746.478168)"><g><path d="M 273.015625 0 L 272.640625 -159.265625 L 194.515625 -28.0625 L 166.84375 -28.0625 L 89.109375 -155.84375 L 89.109375 0 L 31.46875 0 L 31.46875 -265.4375 L 82.28125 -265.4375 L 181.625 -100.484375 L 279.46875 -265.4375 L 329.890625 -265.4375 L 330.65625 0 Z M 273.015625 0 "/></g></g></g><g fill="#346f9b" fill-opacity="1"><g transform="translate(495.562495, 746.478168)"><g><path d="M 206.28125 -56.875 L 83.046875 -56.875 L 59.53125 0 L -3.40625 0 L 114.890625 -265.4375 L 175.5625 -265.4375 L 294.25 0 L 229.78125 0 Z M 186.9375 -103.515625 L 144.84375 -205.140625 L 102.765625 -103.515625 Z M 186.9375 -103.515625 "/></g></g></g><g fill="#346f9b" fill-opacity="1"><g transform="translate(782.225797, 746.478168)"><g><path d="M 158.5 4.546875 C 131.445312 4.546875 106.988281 -1.328125 85.125 -13.078125 C 63.257812 -24.835938 46.066406 -41.144531 33.546875 -62 C 21.035156 -82.851562 14.78125 -106.425781 14.78125 -132.71875 C 14.78125 -159.007812 21.035156 -182.582031 33.546875 -203.4375 C 46.066406 -224.289062 63.257812 -240.59375 85.125 -252.34375 C 106.988281 -264.101562 131.570312 -269.984375 158.875 -269.984375 C 181.882812 -269.984375 202.675781 -265.9375 221.25 -257.84375 C 239.832031 -249.757812 255.441406 -238.132812 268.078125 -222.96875 L 228.65625 -186.5625 C 210.707031 -207.289062 188.457031 -217.65625 161.90625 -217.65625 C 145.476562 -217.65625 130.816406 -214.050781 117.921875 -206.84375 C 105.035156 -199.644531 94.988281 -189.597656 87.78125 -176.703125 C 80.570312 -163.804688 76.96875 -149.144531 76.96875 -132.71875 C 76.96875 -116.28125 80.570312 -101.613281 87.78125 -88.71875 C 94.988281 -75.832031 105.035156 -65.785156 117.921875 -58.578125 C 130.816406 -51.378906 145.476562 -47.78125 161.90625 -47.78125 C 188.457031 -47.78125 210.707031 -58.269531 228.65625 -79.25 L 268.078125 -42.84375 C 255.441406 -27.425781 239.769531 -15.671875 221.0625 -7.578125 C 202.351562 0.503906 181.5 4.546875 158.5 4.546875 Z M 158.5 4.546875 "/></g></g></g><g fill="#346f9b" fill-opacity="1"><g transform="translate(1060.167883, 746.478168)"><g><path d="M 274.90625 -265.4375 L 274.90625 0 L 213.484375 0 L 213.484375 -108.828125 L 92.90625 -108.828125 L 92.90625 0 L 31.46875 0 L 31.46875 -265.4375 L 92.90625 -265.4375 L 92.90625 -160.78125 L 213.484375 -160.78125 L 213.484375 -265.4375 Z M 274.90625 -265.4375 "/></g></g></g><g fill="#333333" fill-opacity="1"><g transform="translate(150.100304, 950.329938)"><g><path d="M 64 1.25 C 53.164062 1.25 42.773438 -0.484375 32.828125 -3.953125 C 22.890625 -7.429688 15.210938 -12.019531 9.796875 -17.71875 L 15.84375 -29.609375 C 21.125 -24.328125 28.140625 -20.050781 36.890625 -16.78125 C 45.648438 -13.519531 54.6875 -11.890625 64 -11.890625 C 77.070312 -11.890625 86.875 -14.285156 93.40625 -19.078125 C 99.9375 -23.867188 103.203125 -30.085938 103.203125 -37.734375 C 103.203125 -43.566406 101.425781 -48.222656 97.875 -51.703125 C 94.332031 -55.179688 89.988281 -57.859375 84.84375 -59.734375 C 79.707031 -61.609375 72.550781 -63.65625 63.375 -65.875 C 52.394531 -68.65625 43.640625 -71.332031 37.109375 -73.90625 C 30.578125 -76.476562 24.984375 -80.40625 20.328125 -85.6875 C 15.671875 -90.96875 13.34375 -98.125 13.34375 -107.15625 C 13.34375 -114.519531 15.285156 -121.222656 19.171875 -127.265625 C 23.066406 -133.316406 29.046875 -138.148438 37.109375 -141.765625 C 45.171875 -145.378906 55.175781 -147.1875 67.125 -147.1875 C 75.46875 -147.1875 83.632812 -146.039062 91.625 -143.75 C 99.613281 -141.457031 106.53125 -138.296875 112.375 -134.265625 L 107.15625 -121.96875 C 101.039062 -126 94.507812 -129.019531 87.5625 -131.03125 C 80.613281 -133.050781 73.800781 -134.0625 67.125 -134.0625 C 54.34375 -134.0625 44.71875 -131.59375 38.25 -126.65625 C 31.789062 -121.71875 28.5625 -115.359375 28.5625 -107.578125 C 28.5625 -101.742188 30.332031 -97.050781 33.875 -93.5 C 37.414062 -89.957031 41.863281 -87.25 47.21875 -85.375 C 52.570312 -83.5 59.765625 -81.445312 68.796875 -79.21875 C 79.503906 -76.582031 88.15625 -73.976562 94.75 -71.40625 C 101.351562 -68.832031 106.945312 -64.9375 111.53125 -59.71875 C 116.125 -54.507812 118.421875 -47.457031 118.421875 -38.5625 C 118.421875 -31.195312 116.4375 -24.488281 112.46875 -18.4375 C 108.507812 -12.394531 102.429688 -7.601562 94.234375 -4.0625 C 86.035156 -0.519531 75.957031 1.25 64 1.25 Z M 64 1.25 "/></g></g></g><g fill="#333333" fill-opacity="1"><g transform="translate(276.228994, 950.329938)"><g><path d="M 52.125 -132.59375 L 0.828125 -132.59375 L 0.828125 -145.9375 L 118.84375 -145.9375 L 118.84375 -132.59375 L 67.546875 -132.59375 L 67.546875 0 L 52.125 0 Z M 52.125 -132.59375 "/></g></g></g><g fill="#333333" fill-opacity="1"><g transform="translate(388.598132, 950.329938)"><g><path d="M 115.296875 -38.984375 L 33.984375 -38.984375 L 16.46875 0 L 0.421875 0 L 67.125 -145.9375 L 82.34375 -145.9375 L 149.0625 0 L 132.796875 0 Z M 109.65625 -51.5 L 74.640625 -129.890625 L 39.609375 -51.5 Z M 109.65625 -51.5 "/></g></g></g><g fill="#333333" fill-opacity="1"><g transform="translate(538.076224, 950.329938)"><g><path d="M 145.734375 -145.9375 L 145.734375 0 L 133.015625 0 L 39.1875 -118.421875 L 39.1875 0 L 23.765625 0 L 23.765625 -145.9375 L 36.484375 -145.9375 L 130.515625 -27.515625 L 130.515625 -145.9375 Z M 145.734375 -145.9375 "/></g></g></g><g fill="#333333" fill-opacity="1"><g transform="translate(707.568155, 950.329938)"><g><path d="M 23.765625 -145.9375 L 83.1875 -145.9375 C 98.613281 -145.9375 112.234375 -142.84375 124.046875 -136.65625 C 135.859375 -130.476562 145.03125 -121.863281 151.5625 -110.8125 C 158.09375 -99.757812 161.359375 -87.144531 161.359375 -72.96875 C 161.359375 -58.789062 158.09375 -46.175781 151.5625 -35.125 C 145.03125 -24.082031 135.859375 -15.46875 124.046875 -9.28125 C 112.234375 -3.09375 98.613281 0 83.1875 0 L 23.765625 0 Z M 82.34375 -13.34375 C 95.132812 -13.34375 106.320312 -15.878906 115.90625 -20.953125 C 125.5 -26.023438 132.9375 -33.039062 138.21875 -42 C 143.5 -50.96875 146.140625 -61.289062 146.140625 -72.96875 C 146.140625 -84.644531 143.5 -94.960938 138.21875 -103.921875 C 132.9375 -112.890625 125.5 -119.910156 115.90625 -124.984375 C 106.320312 -130.054688 95.132812 -132.59375 82.34375 -132.59375 L 39.1875 -132.59375 L 39.1875 -13.34375 Z M 82.34375 -13.34375 "/></g></g></g><g fill="#333333" fill-opacity="1"><g transform="translate(877.68548, 950.329938)"><g><path d="M 115.296875 -38.984375 L 33.984375 -38.984375 L 16.46875 0 L 0.421875 0 L 67.125 -145.9375 L 82.34375 -145.9375 L 149.0625 0 L 132.796875 0 Z M 109.65625 -51.5 L 74.640625 -129.890625 L 39.609375 -51.5 Z M 109.65625 -51.5 "/></g></g></g><g fill="#333333" fill-opacity="1"><g transform="translate(1027.163527, 950.329938)"><g><path d="M 123.421875 0 L 90.0625 -46.90625 C 86.3125 -46.488281 82.421875 -46.28125 78.390625 -46.28125 L 39.1875 -46.28125 L 39.1875 0 L 23.765625 0 L 23.765625 -145.9375 L 78.390625 -145.9375 C 97.015625 -145.9375 111.609375 -141.488281 122.171875 -132.59375 C 132.734375 -123.695312 138.015625 -111.46875 138.015625 -95.90625 C 138.015625 -84.507812 135.128906 -74.882812 129.359375 -67.03125 C 123.597656 -59.175781 115.363281 -53.507812 104.65625 -50.03125 L 140.3125 0 Z M 77.96875 -59.421875 C 92.425781 -59.421875 103.476562 -62.613281 111.125 -69 C 118.769531 -75.394531 122.59375 -84.363281 122.59375 -95.90625 C 122.59375 -107.71875 118.769531 -116.785156 111.125 -123.109375 C 103.476562 -129.429688 92.425781 -132.59375 77.96875 -132.59375 L 39.1875 -132.59375 L 39.1875 -59.421875 Z M 77.96875 -59.421875 "/></g></g></g><g fill="#333333" fill-opacity="1"><g transform="translate(1177.892552, 950.329938)"><g><path d="M 23.765625 -145.9375 L 83.1875 -145.9375 C 98.613281 -145.9375 112.234375 -142.84375 124.046875 -136.65625 C 135.859375 -130.476562 145.03125 -121.863281 151.5625 -110.8125 C 158.09375 -99.757812 161.359375 -87.144531 161.359375 -72.96875 C 161.359375 -58.789062 158.09375 -46.175781 151.5625 -35.125 C 145.03125 -24.082031 135.859375 -15.46875 124.046875 -9.28125 C 112.234375 -3.09375 98.613281 0 83.1875 0 L 23.765625 0 Z M 82.34375 -13.34375 C 95.132812 -13.34375 106.320312 -15.878906 115.90625 -20.953125 C 125.5 -26.023438 132.9375 -33.039062 138.21875 -42 C 143.5 -50.96875 146.140625 -61.289062 146.140625 -72.96875 C 146.140625 -84.644531 143.5 -94.960938 138.21875 -103.921875 C 132.9375 -112.890625 125.5 -119.910156 115.90625 -124.984375 C 106.320312 -130.054688 95.132812 -132.59375 82.34375 -132.59375 L 39.1875 -132.59375 L 39.1875 -13.34375 Z M 82.34375 -13.34375 "/></g></g></g><g clip-path="url(#1ac1b1c4f0)"><g clip-path="url(#b00a1afc58)"><g transform="matrix(1, 0, 0, 1, 533, 1017)"><g clip-path="url(#d47578f100)"><g clip-path="url(#16395029f2)"><g clip-path="url(#76dd660aed)"><path fill="#c5a059" d="M 0.554688 0.402344 L 63.613281 0.402344 L 63.613281 50.847656 L 0.554688 50.847656 Z M 0.554688 0.402344 " fill-opacity="1" fill-rule="nonzero"/></g></g></g></g></g></g><g clip-path="url(#ff02e357a5)"><g clip-path="url(#183e8e4703)"><g transform="matrix(1, 0, 0, 1, 479, 1017)"><g clip-path="url(#546f6f20c8)"><g clip-path="url(#e840117555)"><g clip-path="url(#06c86e594d)"><path fill="#346f9b" d="M 0.46875 0.402344 L 63.527344 0.402344 L 63.527344 50.847656 L 0.46875 50.847656 Z M 0.46875 0.402344 " fill-opacity="1" fill-rule="nonzero"/></g></g></g></g></g></g></svg>